<svg xmlns="http://www.w3.org/2000/svg" viewBox="0 0 512 512">
  <!-- Forest Green Background -->
  <rect width="512" height="512" rx="112" fill="#1E4D2B"/>
  
  <!-- Beige Kangaroo Silhouette -->
  <path fill="#F5F5DC" d="M374.5 244c-4.8-13.6-11.4-26-21.2-35.8-9.4-9.4-19.6-15.6-32.3-20.2-2.3-.8-4.5-1.5-6.7-2.1V171c0-6-3.8-11.3-9.5-12.8-17-4.5-35.4-8-50.5-8-12.1 0-21.1 5.3-26.6 15.6-3.8 7.2-4.5 15.4-3.8 23.4 1.1 11.3 4.1 22.3 9.4 32.1 4.5 8.3 11.3 15.1 18.5 21.5 5.3 4.9 10.9 9.4 16.6 14 11.7 9.4 23.8 18.9 33.2 30.9 8.3 10.6 14.3 22.6 18.1 35.8 4.5 15.8 6.4 32.8 6.8 50.2.4 13.6-10.2 24.9-23.8 24.9-12.8 0-23.4-10.2-23.8-23-.4-14.7-2.3-28.7-6.4-42.3-3.4-11.3-8.7-21.9-15.8-31.3-8.7-11.3-20-20.4-30.9-29.4-6.4-5.3-12.4-10.6-18.1-16.2-7.9-7.5-14.7-15.8-20.4-25.3-6.4-11.3-9.8-23.8-11.3-36.6-.8-9.1.4-18.9 5.3-26.8 6.8-11.3 17.7-18.1 31.7-18.1 16.6 0 35.8 3.8 53.6 8.7 10.2 2.6 16.6 12.4 15.1 23l-.8 4.5c-1.1 6.8-7.5 11.7-14.3 11.7-1.1 0-2.3-.4-3.4-.8-13.6-4.2-28.7-7.2-41.5-7.2-7.2 0-12.4 2.3-15.1 6.4-2.3 3.4-2.6 8.3-1.9 12.4.8 6.4 3.8 12.4 7.2 18.1 4.5 7.9 10.2 14.7 16.6 20.8 5.7 5.3 11.7 10.2 17.7 15.1 11.3 9.4 23 18.9 32.4 30.6 7.5 9.8 13.2 20.8 16.6 32.4 4.2 14 5.7 28.7 6 44.2.4 15.8-12.1 29.1-27.9 29.1H138.8c-14.3 0-26-11.7-26-26s11.7-26 26-26h28.3c-2.3-15.1-6-29.4-11.3-43.4-5.3-14-12.4-27.2-21.1-39.2-9.4-13.2-21.1-24.9-34.3-34.7-11.3-8.3-24.2-14.7-38.5-19.2-12.8-4.2-26.4-6.4-40.8-6.4-11.3 0-20.4-9.1-20.4-20.4s9.1-20.4 20.4-20.4c17.4 0 33.6 2.6 49.1 7.5 17 5.3 32.4 12.8 46.4 23 15.8 11.3 29.4 24.9 40.4 40.4 9.8 13.6 17.7 28.7 23.4 44.5.8 2.6 1.5 5.3 2.3 7.9 2.6-8.3 4.9-17 7.2-25.7 6.4-25.3 14.3-49.8 24.9-72.8 10.2-21.9 22.3-42.3 36.6-60.8 12.4-16.2 26.8-30.6 43-43 14.3-10.9 30.2-19.6 47.5-25.7 6.4-2.3 13.2.4 16.2 6.4 3.4 6 1.9 13.2-3.4 17.7-14.7 11.3-27.5 24.5-38.9 39.2-12.4 16.2-22.6 34-31.3 52.8-9.4 20.8-16.6 43-21.9 66-1.5 7.2-2.6 14.3-3.8 21.5 8.7-20 18.5-38.9 30.2-56.2 10.9-16.2 23.4-31.3 37.4-44.5 12.8-12.1 27.2-22.6 43.4-31.3 6.4-3.4 14.3-.8 17.7 5.3 3 6 .8 13.6-4.9 17.4-13.6 8.3-25.7 17.7-36.6 28.3-12.1 11.3-22.6 24.2-31.7 38.1-10.6 15.8-19.2 32.8-26.4 50.9-5.3 14-9.8 28.7-13.6 43.8-3 12.4-15.5 20.4-28.3 20.4H138.8"/>
</svg>
